<?xml version="1.0" encoding="utf-8"?>
<!-- Generator: Adobe Illustrator 26.0.1, SVG Export Plug-In . SVG Version: 6.00 Build 0)  -->
<svg version="1.1" id="Livello_1" xmlns="http://www.w3.org/2000/svg" xmlns:xlink="http://www.w3.org/1999/xlink" x="0px" y="0px"
	 viewBox="0 0 291.9 230" style="enable-background:new 0 0 291.9 230;" xml:space="preserve">
<style type="text/css">
	.st0{fill:#FFFFFF;}
</style>
<g>
	<path d="M291.8,131.1V120H291v-2.1h-1.1v-3.7h-2.1v-3.3h-0.8v-2.8h-2.1v-1h-0.9V106H282v-1h-2.1v-1H278v-1h-2v-0.8H268v-1.1h-8v0.7
		h-6v-0.7h-2.9V100h-1.3v-2H248v-2h-2v-1.2h-1.2V94h-2v-0.9h-0.9V92h-1v-1h-2.1v-1.1h-0.7V89H236v-1h-2.2v-1.1H233v-0.8h-2.1v-0.9
		h-0.8V84H229v-0.9h-1.1v-0.9h-2.8v-2.2H221v-1.1h-3.1v-0.8H217v1h-1.1v-1H211V80h-1.8v1.1h-1.4V80H205v1.2h-4v-1.4h-1.1V79H199
		v-0.9h-0.7c-0.3,0,0-1,0-1h-2.4v-1H195l-0.1-2.1H193v-1h-1.1v-2h-1.8v-0.8H189v-2.1h-2V66h-1.1v-1H185v-2.9h-1.1V61H183v-1h-1.1v-1
		h-1v-1h-2.1v-2.9h-2V52H176v-1.9h-1v-1.2h0.9V47h-1v-2.9H174v-3.2h-1.1v-2.8H172v-2.2h-1.1V34H170v-1.1h-1.1v-1.9h-1.1v-1.8H167v-1
		h-1.1v-1.3h-1v-0.6h-2.1V23h-2.1v-2h-0.9v-1h-1v-3H158v-0.9h-1.1v-1h-1V14h-1v-2h-1.2v-0.9H153V9h-2.2V5.9h-1.7V5.1H148V4h-1V2
		h-0.9V0H142v2h-1v1h-1v2.1h-1V7h-1v4h-0.9v2H135v2h-0.9v4.9h-1V25h-1v4h-1v1H130v6h-0.9v4h-1.2v2.1h-1V46H126v5h-1v3h-0.9v2h-1v2.1
		h-1v9.8h-1V72h-1v2h-0.9v12H118v1h-0.9v3H116v4h-1v3h-0.9v9h-1v9h1v1h-1v1h-3v1h-8v-1H99v1h-4v-1h-2v1h-3v-1h-2v-1h-2v-1h-2v-1h-4
		v-1h-3v-1h-2v-1h-2v-1h-2v-1h-2v-1h-1v1h-2v-1h-2v-1h-3v-1h-5v-1h-2v1h-1v-1h-5v-1h-2v1h-1v-1h-2v1h-1v-1h-1v-1h-2v-1h-1v-1h-1v-1
		h-1v-2h-1v-1h-2v-1h-2v1h-2v1h-1v1h-1v3h-1v2h-1v2h-1v1h-4v1h-1v1h-2v1h-1v1h-1v1h-1v1h-2v1h-2v1H9v2H8v1H6v2H5v1H4v1H3v1H2v2H1v2
		H0v4h1v1h1v1h1v1h4v1h2v-1h6v-1h2v-1h6v1h2v-1h5v1H29v4h-1v1h-1v2h1v2h1v1h4v1h5v-1h1.8c0,0-0.1-2,0-1.9c0.1,0.1,2.2-0.1,2.2-0.1
		v-1h1v-1h3v-1.1h7.8v-1h8.1V136h6.1v0.9h0.8V136h0.9v0.9h3.1v1h3v1.1h5.9v1.1h2.1v0.8h3v1h2v1.2h0.9v1.8h1.3v1h1v2.2h2.8v0.9h4V148
		h0.9v0.9h1.2v1.1h0.9v0.9h3V150h3v0.9h3.1v3h-1.2v3.9h1.2V182h0.9v1h-0.8v4.9h0.8V201h1v1.9h1.1v1h-1v4h1v6.1h1v5.8h0.9v8h1.2v1.1
		h0.9v1.1h8v-1h0.9v-1h1.1v-1.1h1V226h1v-1.1h1V224h1v-2h0.9v-1h2.1v-1h1v-1.9h0.9v-1h1.1V216h1v-1h2v-1h1v-1h1v-1h1v-1h1v-2.1h2v-1
		h1.1v-1h1V206h1.9v-1h2v-1.1h1.9v-2h1V201h1v-1h1.1v-1.1h0.9v-1h1v-1h2.1V196h1v-2h1v-1h1v-1h1v-1h1v-1h1v-1h2v-1h1v-1h1v-1h2v-1h1
		v-1h1v-2h1v-1h2v-1h1v-1h0.9v-1.1h1.1v-1h1V176h1.1v-1h1v-1h0.9v-1h1.1v-2h1.9v-2h1v-1h1v-1.2h0.9v-1h1v-2h1.1v-2h0.9v-1h1.2v-1
		h0.9V159h1v-1h1v-1.1h0.9v-1h1.2v2h5v-1h1v1h8.9V156h2v-1.1h5V154h3v-1h6v-1h2.9v-1.1h2.1V150h4.9v-1.2h1v-1.9h1.1v-1.1h2.1v-1h2.8
		v2.1h1.1v1h1v1.1h1.8v0.9h2.1v-1h1v1h1v1h7v-1h3.1v0.8h5.9V150h4.9v-1.2h3.1v-0.9h0.8V147h2.1v-1.1h1v-1h1.1V144h1v-2.3h1.1v-0.9h1
		v-1h1V138h0.8v-1.1h1v-4.7h-1v-1.1H291.8z M21.2,113.2h-3v1h-1v1h-1v1h-1v-2h2v-2h2v-1h1v1h1V113.2z M272.2,114.2h-2v-1h-2v-3.1h2
		v1h2V114.2z M282.1,113.3h-1v0.9h-2v1h-2v-1h2v-3h-2v-3h-1v-1h2v2.1h1v0.9h1.1v1.1h1v1h1V113.3z"/>
	<polygon class="st0" points="270.1,110.2 268.2,110.2 268.2,113.3 270.2,113.3 270.2,114.2 272.2,114.2 272.2,111.2 270.1,111.2 	
		"/>
	<rect x="277.1" y="114.2" class="st0" width="2" height="1"/>
	<polygon class="st0" points="281.2,111.3 280.2,111.3 280.2,110.2 279.1,110.2 279.1,109.3 278.1,109.3 278.1,107.2 276.1,107.2 
		276.1,108.2 277.1,108.2 277.1,111.2 279.1,111.2 279.1,114.2 281.2,114.2 281.2,113.3 282.1,113.3 282.1,112.2 281.2,112.2 	"/>
	<polygon class="st0" points="15.2,116.2 16.2,116.2 16.2,115.2 17.2,115.2 17.2,114.2 15.2,114.2 	"/>
	<polygon class="st0" points="20.2,111.3 19.2,111.3 19.2,112.2 17.2,112.2 17.2,114.2 18.1,114.2 18.1,113.2 21.2,113.2 
		21.2,112.3 20.2,112.3 	"/>
</g>
</svg>
