<svg id="Livello_1" data-name="Livello 1" xmlns="http://www.w3.org/2000/svg" viewBox="0 0 15.5 16.5"><defs><style>.cls-1{fill:none;stroke:#1d1d1b;stroke-miterlimit:10;stroke-width:0.5px;}</style></defs><rect class="cls-1" x="0.25" y="0.25" width="15" height="15"/><path class="cls-1" d="M9.37,10.15a8.49,8.49,0,0,1-4.52,1.4c-2,0-1.68-.8-1.68-.8s.11-1,4.58-1a10.15,10.15,0,0,1,4.48.83,2.41,2.41,0,0,1,1.34,3.17c-.42,1.06-2,2.5-5.82,2.5"/><path class="cls-1" d="M7.75,7.55s.55-1.8,1.87-1.8a1.61,1.61,0,0,1,1.63,1.5s.25,1.58-1.87,2.9"/></svg>