<svg id="Livello_1" data-name="Livello 1" xmlns="http://www.w3.org/2000/svg" viewBox="0 0 60.5 64.5"><defs><style>.cls-1{fill:none;}.cls-1,.cls-2,.cls-3{stroke:#1d1d1b;stroke-miterlimit:10;stroke-width:0.5px;}.cls-2{fill:#fff;}.cls-3{fill:#1d1d1b;}</style></defs><rect class="cls-1" x="0.25" y="0.25" width="60" height="60"/><line class="cls-1" x1="30.25" y1="0.25" x2="30.23" y2="60.25"/><line class="cls-1" x1="30.25" y1="0.25" x2="0.25" y2="60.25"/><line class="cls-1" x1="30.25" y1="0.25" x2="60.25" y2="60.25"/><line class="cls-1" x1="0.25" y1="60.25" x2="30.25" y2="44.25"/><line class="cls-1" x1="0.25" y1="60.25" x2="60.25" y2="60.25"/><path class="cls-1" d="M30.26,64.25s12.55,0,14-6l3-24"/><path class="cls-1" d="M16.25,58.25c0-.16,0-4,14-4"/><line class="cls-1" x1="16.25" y1="58.25" x2="44.25" y2="58.25"/><line class="cls-1" x1="45.25" y1="30.25" x2="47.25" y2="34.25"/><line class="cls-1" x1="16.25" y1="58.25" x2="13.25" y2="34.25"/><line class="cls-1" x1="13.25" y1="34.25" x2="47.25" y2="34.25"/><line class="cls-1" x1="30.25" y1="30.25" x2="45.25" y2="30.25"/><path class="cls-1" d="M30.25,38.25s11.25-.49,17.93,3.33c5.94,3.4,7.17,8,5.34,12.67-1.66,4.23-8,10-23.26,10"/><path class="cls-1" d="M36.75,39.85c-7.68,5.6-17.76,5.61-18.11,5.6-8.19-.17-6.72-3.2-6.72-3.2s.32-2.92,11.56-3.77"/><path class="cls-1" d="M30.26,29.45s2.19-7.2,7.49-7.2c6.08,0,6.5,6,6.5,6s1,6.3-7.5,11.6"/><line class="cls-1" x1="30.23" y1="58.25" x2="44.25" y2="58.25"/><line class="cls-1" x1="44.35" y1="57.45" x2="44.25" y2="58.25"/><line class="cls-1" x1="43.32" y1="53.43" x2="44.35" y2="57.45"/><line class="cls-1" x1="30.25" y1="57.45" x2="44.35" y2="57.45"/><line class="cls-1" x1="30.23" y1="58.25" x2="30.25" y2="54.25"/><line class="cls-1" x1="35.77" y1="53.43" x2="43.32" y2="53.43"/><line class="cls-1" x1="44.17" y1="52.19" x2="30.25" y2="54.25"/><line class="cls-1" x1="44.25" y1="51.45" x2="44.17" y2="52.19"/><line class="cls-1" x1="43.65" y1="49.45" x2="44.25" y2="51.45"/><line class="cls-1" x1="30.25" y1="53.45" x2="44.25" y2="51.45"/><line class="cls-1" x1="30.25" y1="54.25" x2="30.25" y2="50.25"/><line class="cls-1" x1="36.95" y1="49.45" x2="30.25" y2="50.25"/><line class="cls-1" x1="43.65" y1="49.45" x2="36.95" y2="49.45"/><line class="cls-1" x1="37.08" y1="46.25" x2="30.25" y2="50.25"/><line class="cls-1" x1="37.12" y1="45.45" x2="30.25" y2="49.45"/><line class="cls-1" x1="37.08" y1="46.25" x2="37.12" y2="45.45"/><line class="cls-1" x1="30.25" y1="49.45" x2="30.25" y2="50.25"/><line class="cls-1" x1="33.68" y1="45.45" x2="37.12" y2="45.45"/><line class="cls-1" x1="32.25" y1="45.78" x2="33.68" y2="45.45"/><line class="cls-1" x1="30.25" y1="49.45" x2="30.26" y2="46.25"/><line class="cls-1" x1="28.25" y1="46.25" x2="32.25" y2="46.25"/><line class="cls-1" x1="28.25" y1="46.25" x2="28.25" y2="45.45"/><line class="cls-1" x1="32.25" y1="46.25" x2="32.25" y2="45.45"/><line class="cls-1" x1="28.25" y1="45.45" x2="32.25" y2="45.45"/><line class="cls-1" x1="32.25" y1="41.45" x2="32.25" y2="45.45"/><line class="cls-1" x1="28.25" y1="41.45" x2="28.25" y2="45.45"/><line class="cls-1" x1="28.25" y1="41.45" x2="28.88" y2="41.45"/><line class="cls-1" x1="30.25" y1="41.45" x2="32.25" y2="41.45"/><polyline class="cls-1" points="23.05 37.45 23.08 38.25 30.25 42.25 30.25 38.25"/><path class="cls-1" d="M13.25,33.45c0-.16.4-4,17-4v4"/><line class="cls-2" x1="30.25" y1="41.45" x2="23.05" y2="37.45"/><polyline class="cls-3" points="14.58 35.45 14.65 36.29 30.25 38.25 30.25 37.45"/><line class="cls-1" x1="15.15" y1="34.24" x2="14.58" y2="35.45"/><line class="cls-1" x1="30.25" y1="37.45" x2="14.58" y2="35.45"/><line class="cls-1" x1="30.25" y1="34.24" x2="30.25" y2="38.25"/><polygon class="cls-3" points="30.25 34.24 13.25 34.25 13.25 33.45 30.25 33.45 30.25 34.24"/><polygon class="cls-3" points="30.25 42.25 23.08 38.25 23.05 37.45 30.25 41.45 30.25 42.25"/><rect class="cls-3" x="28.25" y="45.45" width="4" height="0.8"/><polygon class="cls-3" points="37.12 45.45 30.25 49.45 30.25 50.25 37.08 46.25 37.12 45.45"/><polygon class="cls-3" points="44.17 52.19 30.25 54.25 30.25 53.45 44.25 51.45 44.17 52.19"/><polygon class="cls-3" points="44.25 58.25 30.23 58.25 30.25 57.45 44.35 57.45 44.25 58.25"/></svg>