<svg id="Livello_1" data-name="Livello 1" xmlns="http://www.w3.org/2000/svg" viewBox="0 0 302.08 298.64"><defs><style>.cls-1{fill:none;}.cls-1,.cls-2{stroke:#1d1d1b;stroke-miterlimit:10;stroke-width:2px;}.cls-2{fill:#fff;}</style></defs><path class="cls-1" d="M177.21,125.22C122.76,164.91,51.32,165,48.85,164.91c-58-1.23-47.63-22.68-47.63-22.68s3.11-28.34,129.91-28.34c0,0,79.73-3.46,127.07,23.61,42.08,24.06,50.8,56.95,37.88,89.77-11.79,30-56.37,70.87-164.88,70.87"/><path class="cls-1" d="M131.2,51.52S146.76.5,184.29.5C227.36.5,230.36,43,230.36,43s7.08,44.68-53.15,82.21"/><line class="cls-1" x1="131.03" y1="255.03" x2="230.35" y2="255.03"/><line class="cls-1" x1="231.06" y1="249.36" x2="230.35" y2="255.03"/><line class="cls-1" x1="223.75" y1="220.91" x2="231.06" y2="249.36"/><line class="cls-1" x1="131.14" y1="249.36" x2="231.06" y2="249.36"/><line class="cls-1" x1="131.03" y1="255.03" x2="131.14" y2="226.69"/><line class="cls-1" x1="170.23" y1="220.91" x2="223.75" y2="220.91"/><line class="cls-1" x1="229.81" y1="212.1" x2="131.14" y2="226.69"/><line class="cls-1" x1="230.35" y1="206.84" x2="229.81" y2="212.1"/><line class="cls-1" x1="226.1" y1="192.67" x2="230.35" y2="206.84"/><line class="cls-1" x1="131.14" y1="221.02" x2="230.35" y2="206.84"/><line class="cls-1" x1="131.14" y1="226.69" x2="131.14" y2="198.34"/><line class="cls-1" x1="178.62" y1="192.67" x2="131.14" y2="198.34"/><line class="cls-1" x1="226.1" y1="192.67" x2="178.62" y2="192.67"/><line class="cls-1" x1="179.57" y1="169.99" x2="131.14" y2="198.34"/><line class="cls-1" x1="179.8" y1="164.32" x2="131.14" y2="192.67"/><line class="cls-1" x1="179.57" y1="169.99" x2="179.8" y2="164.32"/><line class="cls-1" x1="131.14" y1="192.67" x2="131.14" y2="198.34"/><line class="cls-1" x1="155.47" y1="164.32" x2="179.8" y2="164.32"/><line class="cls-1" x1="145.31" y1="166.68" x2="155.47" y2="164.32"/><line class="cls-1" x1="131.14" y1="192.67" x2="131.2" y2="169.99"/><line class="cls-1" x1="116.96" y1="169.99" x2="145.31" y2="169.99"/><line class="cls-1" x1="116.96" y1="169.99" x2="116.96" y2="164.32"/><line class="cls-1" x1="145.31" y1="169.99" x2="145.31" y2="164.32"/><line class="cls-1" x1="116.96" y1="164.32" x2="145.31" y2="164.32"/><line class="cls-1" x1="145.31" y1="135.98" x2="145.31" y2="164.32"/><line class="cls-1" x1="116.96" y1="135.98" x2="116.96" y2="164.32"/><line class="cls-1" x1="116.96" y1="135.98" x2="121.46" y2="135.98"/><line class="cls-1" x1="131.14" y1="135.98" x2="145.31" y2="135.98"/><polyline class="cls-1" points="80.09 107.63 80.32 113.3 131.13 141.65 131.13 113.3"/><polyline class="cls-1" points="80.09 107.63 80.32 113.3 131.13 141.65 131.13 113.3"/><path class="cls-1" d="M10.67,79.28c-.18-1.13,2.83-28.35,120.47-28.35V79.28"/><line class="cls-2" x1="131.14" y1="135.98" x2="80.09" y2="107.63"/><line class="cls-1" x1="131.14" y1="135.98" x2="80.09" y2="107.63"/><polyline class="cls-1" points="20.12 93.46 20.59 99.39 131.13 113.3 131.13 107.61"/><polyline class="cls-1" points="20.12 93.46 20.59 99.39 131.13 113.3 131.13 107.61"/><line class="cls-1" x1="24.13" y1="84.85" x2="20.12" y2="93.46"/><line class="cls-1" x1="131.14" y1="107.6" x2="20.12" y2="93.46"/><line class="cls-1" x1="131.13" y1="84.85" x2="131.13" y2="113.3"/><polygon class="cls-1" points="131.13 84.85 10.67 84.95 10.67 79.28 131.14 79.28 131.13 84.85"/><polyline class="cls-1" points="131.13 84.85 10.67 84.95 10.67 79.28 131.14 79.28 131.13 84.85"/></svg>