<svg id="Livello_1" data-name="Livello 1" xmlns="http://www.w3.org/2000/svg" viewBox="0 0 35.02 32.44"><defs><style>.cls-1{fill:none;}.cls-1,.cls-2,.cls-3{stroke:#1d1d1b;stroke-miterlimit:10;stroke-width:0.5px;}.cls-2{fill:#fff;}.cls-3{fill:#1d1d1b;}</style></defs><line class="cls-1" x1="19.09" y1="32.19" x2="34.63" y2="32.19"/><line class="cls-1" x1="34.74" y1="31.3" x2="34.63" y2="32.19"/><line class="cls-1" x1="33.6" y1="26.85" x2="34.74" y2="31.3"/><line class="cls-1" x1="19.1" y1="31.3" x2="34.74" y2="31.3"/><line class="cls-1" x1="19.09" y1="32.19" x2="19.1" y2="27.75"/><line class="cls-1" x1="25.22" y1="26.85" x2="33.6" y2="26.85"/><line class="cls-1" x1="34.54" y1="25.47" x2="19.1" y2="27.75"/><line class="cls-1" x1="34.63" y1="24.65" x2="34.54" y2="25.47"/><line class="cls-1" x1="33.96" y1="22.43" x2="34.63" y2="24.65"/><line class="cls-1" x1="19.1" y1="26.87" x2="34.63" y2="24.65"/><line class="cls-1" x1="19.1" y1="27.75" x2="19.1" y2="23.32"/><line class="cls-1" x1="26.53" y1="22.43" x2="19.1" y2="23.32"/><line class="cls-1" x1="33.96" y1="22.43" x2="26.53" y2="22.43"/><line class="cls-1" x1="26.68" y1="18.88" x2="19.1" y2="23.32"/><line class="cls-1" x1="26.72" y1="17.99" x2="19.1" y2="22.43"/><line class="cls-1" x1="26.68" y1="18.88" x2="26.72" y2="17.99"/><line class="cls-1" x1="19.1" y1="22.43" x2="19.1" y2="23.32"/><line class="cls-1" x1="22.91" y1="17.99" x2="26.72" y2="17.99"/><line class="cls-1" x1="21.32" y1="18.36" x2="22.91" y2="17.99"/><line class="cls-1" x1="19.1" y1="22.43" x2="19.11" y2="18.88"/><line class="cls-1" x1="16.88" y1="18.88" x2="21.32" y2="18.88"/><line class="cls-1" x1="16.88" y1="18.88" x2="16.88" y2="17.99"/><line class="cls-1" x1="21.32" y1="18.88" x2="21.32" y2="17.99"/><line class="cls-1" x1="16.88" y1="17.99" x2="21.32" y2="17.99"/><line class="cls-1" x1="21.32" y1="13.56" x2="21.32" y2="17.99"/><line class="cls-1" x1="16.88" y1="13.56" x2="16.88" y2="17.99"/><line class="cls-1" x1="16.88" y1="13.56" x2="17.59" y2="13.56"/><line class="cls-1" x1="19.1" y1="13.56" x2="21.32" y2="13.56"/><polyline class="cls-1" points="11.11 9.12 11.15 10.01 19.1 14.45 19.1 10.01"/><path class="cls-1" d="M.25,4.69C.22,4.51.69.25,19.1.25V4.69"/><line class="cls-2" x1="19.1" y1="13.56" x2="11.11" y2="9.12"/><line class="cls-1" x1="19.1" y1="13.56" x2="11.11" y2="9.12"/><polyline class="cls-2" points="1.73 6.9 1.8 7.83 19.1 10.01 19.1 9.12"/><polyline class="cls-3" points="1.73 6.9 1.8 7.83 19.1 10.01 19.1 9.12"/><line class="cls-1" x1="2.36" y1="5.56" x2="1.73" y2="6.9"/><line class="cls-1" x1="19.1" y1="9.12" x2="1.73" y2="6.9"/><line class="cls-1" x1="19.1" y1="5.56" x2="19.1" y2="10.01"/><polygon class="cls-2" points="19.1 5.56 0.25 5.57 0.25 4.69 19.1 4.69 19.1 5.56"/><polyline class="cls-3" points="19.1 5.56 0.25 5.57 0.25 4.69 19.1 4.69 19.1 5.56"/><polygon class="cls-3" points="19.1 14.45 11.15 10.01 11.11 9.12 19.1 13.56 19.1 14.45"/><rect class="cls-3" x="16.88" y="17.99" width="4.44" height="0.89"/><polygon class="cls-3" points="26.68 18.88 19.1 23.32 19.1 22.43 26.72 17.99 26.68 18.88"/><polygon class="cls-3" points="34.54 25.47 19.1 27.75 19.1 26.87 34.63 24.65 34.54 25.47"/><polygon class="cls-3" points="34.63 32.19 19.09 32.19 19.1 31.3 34.74 31.3 34.63 32.19"/></svg>