<svg id="Livello_1" data-name="Livello 1" xmlns="http://www.w3.org/2000/svg" viewBox="0 0 16.19 14.7"><defs><style>.cls-1{fill:none;}.cls-1,.cls-2{stroke:#1d1d1b;stroke-miterlimit:10;stroke-width:0.5px;}.cls-2{fill:#1d1d1b;}</style></defs><line class="cls-1" x1="0.25" y1="14.45" x2="15.8" y2="14.45"/><line class="cls-1" x1="15.91" y1="13.56" x2="15.8" y2="14.45"/><line class="cls-1" x1="0.27" y1="13.56" x2="15.91" y2="13.56"/><polyline class="cls-1" points="6.39 9.11 14.49 9.11 14.76 9.11 15.91 13.56"/><line class="cls-1" x1="15.71" y1="7.73" x2="0.27" y2="10.01"/><line class="cls-1" x1="15.8" y1="6.9" x2="15.71" y2="7.73"/><line class="cls-1" x1="0.27" y1="9.12" x2="15.8" y2="6.9"/><polyline class="cls-1" points="15.8 6.9 15.13 4.69 15.02 4.69 7.85 4.69 7.7 4.69 0.27 5.57"/><line class="cls-1" x1="7.89" y1="0.25" x2="0.27" y2="4.69"/><polyline class="cls-1" points="0.48 1.08 4.08 0.25 4.23 0.25 7.6 0.25 7.89 0.25 7.85 1.01 7.85 1.14 0.27 5.57"/><polygon class="cls-2" points="7.68 1 0.28 5.57 0.28 4.69 7.74 0.54 7.68 1"/><polygon class="cls-2" points="15.71 7.73 0.27 10.01 0.27 9.12 15.8 6.9 15.71 7.73"/><polygon class="cls-2" points="15.8 14.45 0.26 14.45 0.27 13.56 15.91 13.56 15.8 14.45"/></svg>