<svg id="Livello_1" data-name="Livello 1" xmlns="http://www.w3.org/2000/svg" viewBox="0 0 19.36 14.87"><defs><style>.cls-1{fill:none;}.cls-1,.cls-2,.cls-3{stroke:#1d1d1b;stroke-miterlimit:10;stroke-width:0.5px;}.cls-2{fill:#fff;}.cls-3,.cls-4{fill:#1d1d1b;}</style></defs><polyline class="cls-1" points="11.11 9.12 11.15 10.01 19.1 14.45"/><path class="cls-1" d="M.25,4.69C.22,4.51.69.25,19.1.25"/><line class="cls-2" x1="19.1" y1="13.56" x2="11.11" y2="9.12"/><line class="cls-1" x1="19.1" y1="13.56" x2="11.11" y2="9.12"/><polyline class="cls-2" points="1.73 6.9 1.8 7.83 19.1 10.01 19.1 9.12"/><polyline class="cls-1" points="2.36 5.56 1.73 6.9 1.73 7.07 1.8 7.83 19.1 10.01 19.1 9.31 19.1 9.12 2.32 6.98 2.05 6.95 1.9 6.92"/><polygon class="cls-2" points="19.1 5.56 0.25 5.57 0.25 4.69 19.1 4.69 19.1 5.56"/><polyline class="cls-3" points="19.1 5.56 0.25 5.57 0.25 4.69 19.1 4.69 19.1 5.56"/><polygon class="cls-3" points="19.1 14.45 11.15 10.01 11.11 9.12 19.1 13.56 19.1 14.45"/><polygon class="cls-4" points="19.01 9.91 1.73 7.93 1.73 6.92 18.84 9.12 19.01 9.91"/></svg>