<svg id="Livello_1" data-name="Livello 1" xmlns="http://www.w3.org/2000/svg" viewBox="0 0 221.39 205.1"><defs><style>.cls-1{fill:none;}.cls-1,.cls-2{stroke:#1d1d1b;stroke-miterlimit:10;stroke-width:2px;}.cls-2{fill:#fff;}</style></defs><line class="cls-1" x1="120.87" y1="204.6" x2="220.19" y2="204.6"/><line class="cls-1" x1="220.9" y1="198.93" x2="220.19" y2="204.6"/><line class="cls-1" x1="213.58" y1="170.47" x2="220.9" y2="198.93"/><line class="cls-1" x1="120.97" y1="198.93" x2="220.9" y2="198.93"/><line class="cls-1" x1="120.87" y1="204.6" x2="120.97" y2="176.25"/><line class="cls-1" x1="160.06" y1="170.47" x2="213.58" y2="170.47"/><line class="cls-1" x1="219.64" y1="161.66" x2="120.97" y2="176.25"/><line class="cls-1" x1="220.19" y1="156.41" x2="219.64" y2="161.66"/><line class="cls-1" x1="215.94" y1="142.24" x2="220.19" y2="156.41"/><line class="cls-1" x1="120.97" y1="170.58" x2="220.19" y2="156.41"/><line class="cls-1" x1="120.97" y1="176.25" x2="120.97" y2="147.91"/><line class="cls-1" x1="168.46" y1="142.24" x2="120.97" y2="147.9"/><line class="cls-1" x1="215.94" y1="142.24" x2="168.46" y2="142.24"/><line class="cls-1" x1="169.4" y1="119.56" x2="120.97" y2="147.9"/><line class="cls-1" x1="169.64" y1="113.89" x2="120.98" y2="142.24"/><line class="cls-1" x1="169.4" y1="119.56" x2="169.64" y2="113.89"/><line class="cls-1" x1="120.98" y1="142.24" x2="120.97" y2="147.9"/><line class="cls-1" x1="145.31" y1="113.89" x2="169.64" y2="113.89"/><line class="cls-1" x1="135.15" y1="116.25" x2="145.31" y2="113.89"/><line class="cls-1" x1="120.98" y1="142.24" x2="121.04" y2="119.56"/><line class="cls-1" x1="106.8" y1="119.56" x2="135.14" y2="119.56"/><line class="cls-1" x1="106.8" y1="119.56" x2="106.8" y2="113.89"/><line class="cls-1" x1="135.15" y1="119.56" x2="135.15" y2="113.89"/><line class="cls-1" x1="106.8" y1="113.89" x2="135.14" y2="113.89"/><line class="cls-1" x1="135.15" y1="85.54" x2="135.15" y2="113.89"/><line class="cls-1" x1="106.8" y1="85.54" x2="106.8" y2="113.89"/><line class="cls-1" x1="106.8" y1="85.54" x2="111.29" y2="85.54"/><line class="cls-1" x1="120.98" y1="85.54" x2="135.14" y2="85.54"/><polyline class="cls-1" points="69.92 57.2 70.15 62.87 120.97 91.21 120.97 62.87"/><polyline class="cls-1" points="69.92 57.2 70.15 62.87 120.97 91.21 120.97 62.87"/><path class="cls-1" d="M.51,28.85C.32,27.71,3.34.5,121,.5V28.85"/><path class="cls-1" d="M.51,28.85C.32,27.71,3.34.5,121,.5V28.85"/><line class="cls-2" x1="120.98" y1="85.54" x2="69.92" y2="57.2"/><line class="cls-1" x1="120.98" y1="85.54" x2="69.92" y2="57.2"/><polyline class="cls-1" points="9.95 43.02 10.43 48.95 120.97 62.87 120.97 57.17"/><polyline class="cls-1" points="9.95 43.02 10.43 48.95 120.97 62.87 120.97 57.17"/><line class="cls-1" x1="13.97" y1="34.42" x2="9.95" y2="43.02"/><line class="cls-1" x1="120.98" y1="57.17" x2="9.95" y2="43.02"/><line class="cls-1" x1="120.97" y1="34.42" x2="120.97" y2="62.87"/><polygon class="cls-1" points="120.97 34.42 0.5 34.52 0.5 28.85 120.98 28.85 120.97 34.42"/><polyline class="cls-1" points="120.97 34.42 0.5 34.52 0.5 28.85 120.98 28.85 120.97 34.42"/></svg>