<svg id="Livello_1" data-name="Livello 1" xmlns="http://www.w3.org/2000/svg" viewBox="0 0 39.44 33.48"><defs><style>.cls-1{fill:none;}.cls-1,.cls-2,.cls-3{stroke:#1d1d1b;stroke-miterlimit:10;stroke-width:0.5px;}.cls-2{fill:#fff;}.cls-3{fill:#1d1d1b;}</style></defs><path class="cls-1" d="M35.75,33.23,39.19,5.75"/><path class="cls-1" d="M3.69,33.23c0-.18,0-4.58,16-4.58"/><line class="cls-1" x1="3.69" y1="33.23" x2="35.75" y2="33.23"/><line class="cls-1" x1="36.9" y1="1.17" x2="39.19" y2="5.75"/><line class="cls-1" x1="3.69" y1="33.23" x2="0.25" y2="5.75"/><line class="cls-1" x1="0.25" y1="5.75" x2="39.19" y2="5.75"/><line class="cls-1" x1="19.72" y1="1.17" x2="36.9" y2="1.17"/><line class="cls-1" x1="19.7" y1="33.23" x2="35.75" y2="33.23"/><line class="cls-1" x1="35.87" y1="32.32" x2="35.75" y2="33.23"/><line class="cls-1" x1="34.69" y1="27.72" x2="35.87" y2="32.32"/><line class="cls-1" x1="19.72" y1="32.32" x2="35.87" y2="32.32"/><line class="cls-1" x1="19.7" y1="33.23" x2="19.72" y2="28.65"/><line class="cls-1" x1="26.04" y1="27.72" x2="34.69" y2="27.72"/><line class="cls-1" x1="35.66" y1="26.29" x2="19.72" y2="28.65"/><line class="cls-1" x1="35.75" y1="25.45" x2="35.66" y2="26.29"/><line class="cls-1" x1="35.07" y1="23.16" x2="35.75" y2="25.45"/><line class="cls-1" x1="19.72" y1="27.74" x2="35.75" y2="25.45"/><line class="cls-1" x1="19.72" y1="28.65" x2="19.72" y2="24.07"/><line class="cls-1" x1="27.39" y1="23.16" x2="19.72" y2="24.07"/><line class="cls-1" x1="35.07" y1="23.16" x2="27.39" y2="23.16"/><line class="cls-1" x1="27.55" y1="19.49" x2="19.72" y2="24.07"/><line class="cls-1" x1="27.58" y1="18.57" x2="19.72" y2="23.16"/><line class="cls-1" x1="27.55" y1="19.49" x2="27.58" y2="18.57"/><line class="cls-1" x1="19.72" y1="23.16" x2="19.72" y2="24.07"/><line class="cls-1" x1="23.65" y1="18.57" x2="27.58" y2="18.57"/><line class="cls-1" x1="22.01" y1="18.96" x2="23.65" y2="18.57"/><line class="cls-1" x1="19.72" y1="23.16" x2="19.73" y2="19.49"/><line class="cls-1" x1="17.43" y1="19.49" x2="22.01" y2="19.49"/><line class="cls-1" x1="17.43" y1="19.49" x2="17.43" y2="18.57"/><line class="cls-1" x1="22.01" y1="19.49" x2="22.01" y2="18.57"/><line class="cls-1" x1="17.43" y1="18.57" x2="22.01" y2="18.57"/><line class="cls-1" x1="22.01" y1="13.99" x2="22.01" y2="18.57"/><line class="cls-1" x1="17.43" y1="13.99" x2="17.43" y2="18.57"/><line class="cls-1" x1="17.43" y1="13.99" x2="18.15" y2="13.99"/><line class="cls-1" x1="19.72" y1="13.99" x2="22.01" y2="13.99"/><polyline class="cls-1" points="11.47 9.41 11.51 10.33 19.72 14.91 19.72 10.33"/><path class="cls-1" d="M.25,4.83C.22,4.65.71.25,19.72.25V4.83"/><line class="cls-2" x1="19.72" y1="13.99" x2="11.47" y2="9.41"/><line class="cls-1" x1="19.72" y1="13.99" x2="11.47" y2="9.41"/><polyline class="cls-2" points="1.78 7.12 1.85 8.08 19.72 10.33 19.72 9.41"/><polyline class="cls-3" points="1.78 7.12 1.85 8.08 19.72 10.33 19.72 9.41"/><line class="cls-1" x1="2.43" y1="5.73" x2="1.78" y2="7.12"/><line class="cls-1" x1="19.72" y1="9.41" x2="1.78" y2="7.12"/><line class="cls-1" x1="19.72" y1="5.73" x2="19.72" y2="10.33"/><polygon class="cls-2" points="19.72 5.73 0.25 5.75 0.25 4.83 19.72 4.83 19.72 5.73"/><polyline class="cls-3" points="19.72 5.73 0.25 5.75 0.25 4.83 19.72 4.83 19.72 5.73"/><polygon class="cls-3" points="19.72 14.91 11.51 10.33 11.47 9.41 19.72 13.99 19.72 14.91"/><rect class="cls-3" x="17.43" y="18.57" width="4.58" height="0.92"/><polygon class="cls-3" points="27.55 19.49 19.72 24.07 19.72 23.16 27.58 18.57 27.55 19.49"/><polygon class="cls-3" points="35.66 26.3 19.72 28.65 19.72 27.74 35.75 25.45 35.66 26.3"/><polygon class="cls-3" points="35.75 33.23 19.7 33.23 19.72 32.32 35.87 32.32 35.75 33.23"/></svg>