<svg id="Livello_1" data-name="Livello 1" xmlns="http://www.w3.org/2000/svg" viewBox="0 0 38.85 32.99"><defs><style>.cls-1{fill:none;}.cls-1,.cls-2{stroke:#1d1d1b;stroke-miterlimit:10;stroke-width:0.5px;}.cls-2{fill:#fff;}</style></defs><path class="cls-1" d="M35.22,32.74,38.6,5.67"/><path class="cls-1" d="M3.63,32.74c0-.18,0-4.52,15.8-4.52"/><line class="cls-1" x1="3.63" y1="32.74" x2="35.22" y2="32.74"/><line class="cls-1" x1="36.35" y1="1.15" x2="38.6" y2="5.66"/><line class="cls-1" x1="3.63" y1="32.74" x2="0.25" y2="5.66"/><line class="cls-1" x1="0.25" y1="5.66" x2="38.6" y2="5.66"/><line class="cls-1" x1="19.43" y1="1.15" x2="36.35" y2="1.15"/><line class="cls-1" x1="19.41" y1="32.74" x2="35.22" y2="32.74"/><line class="cls-1" x1="35.33" y1="31.83" x2="35.22" y2="32.74"/><line class="cls-1" x1="34.17" y1="27.31" x2="35.33" y2="31.83"/><line class="cls-1" x1="19.43" y1="31.83" x2="35.33" y2="31.83"/><line class="cls-1" x1="19.41" y1="32.74" x2="19.43" y2="28.23"/><line class="cls-1" x1="25.65" y1="27.31" x2="34.17" y2="27.31"/><line class="cls-1" x1="35.13" y1="25.9" x2="19.43" y2="28.23"/><line class="cls-1" x1="35.22" y1="25.07" x2="35.13" y2="25.9"/><line class="cls-1" x1="34.54" y1="22.81" x2="35.22" y2="25.07"/><line class="cls-1" x1="19.43" y1="27.32" x2="35.22" y2="25.07"/><line class="cls-1" x1="19.43" y1="28.23" x2="19.43" y2="23.71"/><line class="cls-1" x1="26.98" y1="22.81" x2="19.43" y2="23.71"/><line class="cls-1" x1="34.54" y1="22.81" x2="26.98" y2="22.81"/><line class="cls-1" x1="27.13" y1="19.2" x2="19.43" y2="23.71"/><line class="cls-1" x1="27.17" y1="18.3" x2="19.43" y2="22.81"/><line class="cls-1" x1="27.13" y1="19.2" x2="27.17" y2="18.3"/><line class="cls-1" x1="19.43" y1="22.81" x2="19.43" y2="23.71"/><line class="cls-1" x1="23.3" y1="18.3" x2="27.17" y2="18.3"/><line class="cls-1" x1="21.68" y1="18.67" x2="23.3" y2="18.3"/><line class="cls-1" x1="19.43" y1="22.81" x2="19.44" y2="19.2"/><line class="cls-1" x1="17.17" y1="19.2" x2="21.68" y2="19.2"/><line class="cls-1" x1="17.17" y1="19.2" x2="17.17" y2="18.3"/><line class="cls-1" x1="21.68" y1="19.2" x2="21.68" y2="18.3"/><line class="cls-1" x1="17.17" y1="18.3" x2="21.68" y2="18.3"/><line class="cls-1" x1="21.68" y1="13.79" x2="21.68" y2="18.3"/><line class="cls-1" x1="17.17" y1="13.79" x2="17.17" y2="18.3"/><line class="cls-1" x1="17.17" y1="13.79" x2="17.89" y2="13.79"/><line class="cls-1" x1="19.43" y1="13.79" x2="21.68" y2="13.79"/><polyline class="cls-1" points="11.3 9.28 11.34 10.18 19.43 14.69 19.43 10.18"/><path class="cls-1" d="M.25,4.76C.22,4.58.7.25,19.43.25V4.76"/><line class="cls-2" x1="19.43" y1="13.79" x2="11.3" y2="9.27"/><line class="cls-1" x1="19.43" y1="13.79" x2="11.3" y2="9.27"/><polyline class="cls-1" points="1.75 7.02 1.83 7.96 19.43 10.18 19.43 9.27"/><polyline class="cls-1" points="1.75 7.02 1.83 7.96 19.43 10.18 19.43 9.27"/><line class="cls-1" x1="2.39" y1="5.65" x2="1.75" y2="7.02"/><line class="cls-1" x1="19.43" y1="9.27" x2="1.75" y2="7.02"/><line class="cls-1" x1="19.43" y1="5.65" x2="19.43" y2="10.18"/><polygon class="cls-1" points="19.43 5.65 0.25 5.67 0.25 4.76 19.43 4.76 19.43 5.65"/><polyline class="cls-1" points="19.43 5.65 0.25 5.67 0.25 4.76 19.43 4.76 19.43 5.65"/></svg>